<svg width="108" height="46" viewBox="0 0 108 46" fill="none" xmlns="http://www.w3.org/2000/svg">
<path d="M0.66 45V2.4H19.02C21.1 2.4 23.02 2.82 24.78 3.66C26.54 4.5 28.06 5.64 29.34 7.08C30.62 8.48 31.6 10.06 32.28 11.82C33 13.58 33.36 15.36 33.36 17.16C33.36 19.68 32.76 22.06 31.56 24.3C30.4 26.54 28.76 28.38 26.64 29.82C24.56 31.22 22.12 31.92 19.32 31.92H12.36V45H0.66ZM12.36 21.72H18.54C19.02 21.72 19.48 21.58 19.92 21.3C20.36 21.02 20.72 20.54 21 19.86C21.32 19.18 21.48 18.28 21.48 17.16C21.48 15.96 21.3 15.04 20.94 14.4C20.62 13.72 20.2 13.26 19.68 13.02C19.2 12.74 18.72 12.6 18.24 12.6H12.36V21.72ZM36.9628 34.2V13.44H48.3628V31.62C48.3628 32.98 48.6628 34.06 49.2628 34.86C49.9028 35.62 50.7628 36 51.8428 36C52.4428 36 53.0428 35.92 53.6428 35.76C54.2428 35.6 54.8428 35.28 55.4428 34.8C56.0828 34.32 56.7028 33.64 57.3028 32.76V13.44H68.7028V32.4C68.7028 33.48 68.8628 34.24 69.1828 34.68C69.5028 35.08 70.0628 35.32 70.8628 35.4V45C69.8628 45.2 68.9628 45.34 68.1628 45.42C67.3628 45.54 66.6628 45.6 66.0628 45.6C64.1428 45.6 62.6228 45.24 61.5028 44.52C60.3828 43.8 59.6628 42.7 59.3428 41.22L59.1028 40.08C57.6228 42.04 55.8428 43.46 53.7628 44.34C51.7228 45.18 49.4028 45.6 46.8028 45.6C43.6428 45.6 41.2028 44.62 39.4828 42.66C37.8028 40.7 36.9628 37.88 36.9628 34.2ZM77.7445 25.68H73.8445V17.1H77.7445V13.68C77.7445 11.68 78.0845 9.88 78.7645 8.28C79.4845 6.68 80.4845 5.32 81.7645 4.2C83.0445 3.04 84.5645 2.16 86.3245 1.56C88.0845 0.919999 90.0045 0.599999 92.0845 0.599999C93.6445 0.599999 95.1445 0.779999 96.5845 1.14C98.0645 1.46 99.5645 1.98 101.085 2.7C102.605 3.42 104.205 4.32 105.885 5.4L101.565 14.04C100.205 12.84 98.7645 11.9 97.2445 11.22C95.7245 10.54 94.2645 10.2 92.8645 10.2C92.1045 10.2 91.4445 10.32 90.8845 10.56C90.3245 10.76 89.8845 11.1 89.5645 11.58C89.2845 12.02 89.1445 12.58 89.1445 13.26V17.1H107.085V45H95.6845V25.68H89.1445V45H77.7445V25.68Z" fill="white"/>
</svg>
